<svg id="svg" version="1.1" xmlns="http://www.w3.org/2000/svg" xmlns:xlink="http://www.w3.org/1999/xlink" width="400" height="98.09725158562368" viewBox="0, 0, 400,98.09725158562368"><g id="svgg"><path id="path0" d="M123.667 50.417 L 123.667 93.667 124.583 93.667 L 125.500 93.667 125.500 50.417 L 125.500 7.167 124.583 7.167 L 123.667 7.167 123.667 50.417 M274.833 26.007 C 274.421 26.093,274.007 26.267,273.914 26.393 C 273.821 26.520,273.433 26.677,273.054 26.741 C 272.674 26.805,272.229 27.006,272.065 27.187 C 271.902 27.368,271.509 27.638,271.194 27.788 C 270.878 27.938,270.584 28.198,270.540 28.365 C 270.496 28.533,270.282 28.715,270.063 28.770 C 269.831 28.828,269.667 28.993,269.667 29.167 C 269.667 29.330,269.566 29.503,269.442 29.550 C 269.125 29.672,268.167 31.162,268.167 31.534 C 268.167 31.704,268.054 31.887,267.917 31.940 C 267.764 31.998,267.667 32.251,267.667 32.591 C 267.667 32.897,267.592 33.193,267.500 33.250 C 267.408 33.307,267.333 33.716,267.333 34.159 C 267.333 34.721,267.258 34.993,267.083 35.060 C 266.864 35.145,266.834 36.981,266.835 50.203 C 266.837 64.759,266.877 66.596,267.188 66.404 C 267.268 66.354,267.333 66.689,267.333 67.147 C 267.333 67.605,267.408 68.027,267.500 68.083 C 267.592 68.140,267.667 68.444,267.667 68.760 C 267.667 69.159,267.743 69.333,267.917 69.333 C 268.072 69.333,268.167 69.491,268.167 69.750 C 268.167 69.979,268.242 70.167,268.333 70.167 C 268.425 70.167,268.500 70.341,268.500 70.555 C 268.500 70.799,268.655 71.027,268.917 71.167 C 269.146 71.289,269.333 71.487,269.333 71.606 C 269.333 71.918,270.829 73.333,271.160 73.333 C 271.255 73.333,271.333 73.434,271.333 73.557 C 271.333 73.790,272.007 74.167,272.425 74.167 C 272.558 74.167,272.667 74.245,272.667 74.342 C 272.667 74.612,273.745 75.000,274.495 75.000 C 274.981 75.000,275.167 75.069,275.167 75.250 C 275.167 75.606,281.462 75.627,281.598 75.272 C 281.649 75.139,282.058 75.000,282.579 74.939 C 283.698 74.807,284.000 74.692,284.000 74.399 C 284.000 74.264,284.170 74.167,284.404 74.167 C 285.091 74.167,287.860 71.579,288.071 70.740 C 288.133 70.492,288.330 70.168,288.509 70.020 C 288.715 69.849,288.873 69.443,288.939 68.917 C 289.000 68.436,289.186 67.926,289.381 67.712 C 289.756 67.299,290.033 58.359,289.715 56.917 L 289.569 56.250 285.838 56.205 C 282.964 56.170,282.076 56.209,281.973 56.372 C 281.899 56.488,281.837 58.509,281.836 60.863 C 281.834 64.127,281.782 65.195,281.619 65.363 C 281.501 65.484,281.291 65.883,281.154 66.248 C 281.017 66.614,280.746 66.992,280.553 67.088 C 280.360 67.184,280.100 67.345,279.976 67.446 C 279.612 67.741,277.167 67.710,277.167 67.410 C 277.167 67.262,277.004 67.167,276.750 67.167 C 276.507 67.167,276.333 67.071,276.333 66.937 C 276.333 66.811,276.222 66.615,276.085 66.502 C 275.949 66.388,275.878 66.229,275.928 66.148 C 275.979 66.067,275.910 66.000,275.777 66.000 C 275.192 66.000,275.124 36.024,275.708 35.379 C 275.869 35.202,276.000 34.997,276.000 34.923 C 276.000 34.716,276.710 34.107,277.222 33.875 C 277.771 33.627,279.833 33.594,279.833 33.833 C 279.833 33.925,280.025 34.000,280.260 34.000 C 280.494 34.000,280.646 34.065,280.597 34.144 C 280.548 34.224,280.656 34.423,280.837 34.587 C 281.018 34.751,281.167 34.999,281.167 35.138 C 281.167 35.277,281.298 35.535,281.458 35.712 C 281.713 35.994,281.756 36.483,281.801 39.600 C 281.843 42.575,281.892 43.167,282.093 43.167 C 282.225 43.167,282.333 43.242,282.333 43.333 C 282.333 43.654,289.143 43.548,289.468 43.223 C 289.969 42.721,289.770 33.500,289.258 33.500 C 289.116 33.500,288.996 33.164,288.919 32.547 C 288.847 31.972,288.685 31.492,288.510 31.339 C 288.351 31.198,288.173 30.896,288.116 30.667 C 288.059 30.438,287.784 30.002,287.506 29.698 C 287.228 29.394,287.000 29.076,287.000 28.990 C 287.000 28.904,286.886 28.833,286.746 28.833 C 286.607 28.833,286.415 28.662,286.319 28.453 C 286.224 28.244,285.935 27.979,285.676 27.864 C 285.418 27.750,284.993 27.473,284.733 27.250 C 284.473 27.026,283.939 26.795,283.546 26.736 C 283.137 26.674,282.833 26.539,282.833 26.417 C 282.833 25.961,276.592 25.641,274.833 26.007 M162.208 26.110 C 162.094 26.157,162.000 26.290,162.000 26.408 C 162.000 26.543,161.654 26.661,161.057 26.732 C 160.460 26.802,160.017 26.954,159.849 27.147 C 159.703 27.315,159.396 27.511,159.167 27.584 C 158.544 27.780,158.000 28.176,158.000 28.433 C 158.000 28.558,157.813 28.707,157.583 28.765 C 157.354 28.822,157.167 28.958,157.167 29.067 C 157.167 29.175,156.920 29.525,156.619 29.844 C 156.318 30.164,155.966 30.686,155.837 31.004 C 155.708 31.323,155.505 31.643,155.385 31.717 C 155.265 31.790,155.167 32.067,155.167 32.332 C 155.167 32.597,155.092 32.860,155.000 32.917 C 154.908 32.973,154.833 33.269,154.833 33.573 C 154.833 33.877,154.721 34.219,154.583 34.333 C 154.375 34.506,154.333 35.147,154.333 38.167 C 154.333 41.186,154.375 41.827,154.583 42.000 C 154.721 42.114,154.833 42.456,154.833 42.761 C 154.833 43.065,154.908 43.360,155.000 43.417 C 155.092 43.473,155.167 43.743,155.167 44.015 C 155.167 44.288,155.268 44.550,155.393 44.597 C 155.517 44.645,155.719 44.986,155.840 45.354 C 155.962 45.723,156.214 46.131,156.401 46.262 C 156.588 46.393,156.688 46.500,156.623 46.500 C 156.484 46.500,157.102 47.641,157.436 48.000 C 157.563 48.137,157.911 48.547,158.209 48.911 C 158.507 49.275,158.956 49.773,159.208 50.020 C 159.460 50.266,159.667 50.515,159.667 50.573 C 159.667 50.781,161.202 52.167,161.432 52.167 C 161.561 52.167,161.667 52.281,161.667 52.420 C 161.667 52.560,161.854 52.759,162.083 52.864 C 162.313 52.968,162.500 53.156,162.500 53.282 C 162.500 53.408,162.631 53.558,162.792 53.615 C 162.952 53.673,163.308 53.959,163.583 54.252 C 163.859 54.545,164.252 54.838,164.458 54.903 C 164.667 54.970,164.833 55.158,164.833 55.326 C 164.833 55.512,164.996 55.671,165.250 55.735 C 165.506 55.799,165.667 55.958,165.667 56.146 C 165.667 56.315,165.854 56.594,166.083 56.766 C 166.313 56.938,166.500 57.141,166.500 57.217 C 166.500 57.382,167.363 58.559,167.542 58.639 C 167.610 58.669,167.667 58.829,167.667 58.993 C 167.667 59.158,167.779 59.386,167.917 59.500 C 168.054 59.614,168.167 59.842,168.167 60.007 C 168.167 60.171,168.260 60.337,168.373 60.374 C 168.671 60.474,168.673 66.192,168.375 66.292 C 168.260 66.330,168.167 66.435,168.167 66.526 C 168.167 66.745,167.736 67.167,167.512 67.167 C 167.414 67.167,167.333 67.279,167.333 67.417 C 167.333 67.623,167.027 67.667,165.578 67.667 C 164.172 67.667,163.804 67.617,163.727 67.417 C 163.674 67.279,163.495 67.167,163.328 67.167 C 163.131 67.167,162.959 66.965,162.834 66.585 C 162.728 66.264,162.535 65.943,162.405 65.870 C 162.221 65.767,162.142 65.101,162.057 62.952 L 161.948 60.167 158.174 60.167 C 155.461 60.167,154.344 60.223,154.200 60.367 C 153.948 60.619,153.917 65.429,154.167 65.583 C 154.258 65.640,154.333 66.198,154.333 66.823 C 154.333 67.630,154.406 68.019,154.583 68.167 C 154.721 68.281,154.833 68.548,154.833 68.761 C 154.833 68.973,154.908 69.193,155.000 69.250 C 155.092 69.307,155.167 69.536,155.167 69.760 C 155.167 69.984,155.230 70.167,155.308 70.167 C 155.386 70.167,155.579 70.454,155.737 70.805 C 156.282 72.014,158.600 74.167,159.357 74.167 C 159.527 74.167,159.667 74.276,159.667 74.409 C 159.667 74.673,160.619 74.998,161.398 74.999 C 161.664 75.000,161.976 75.131,162.093 75.292 C 162.401 75.713,168.580 75.737,168.888 75.319 C 169.005 75.161,169.464 75.010,170.027 74.944 C 171.179 74.810,171.500 74.695,171.500 74.420 C 171.500 74.303,171.723 74.164,171.995 74.109 C 172.267 74.055,172.642 73.858,172.828 73.672 C 173.014 73.486,173.210 73.333,173.264 73.333 C 173.480 73.333,174.828 71.899,174.831 71.665 C 174.832 71.527,174.983 71.320,175.167 71.205 C 175.350 71.091,175.500 70.911,175.500 70.806 C 175.500 70.701,175.676 70.383,175.891 70.099 C 176.106 69.815,176.334 69.358,176.399 69.083 C 176.463 68.808,176.560 68.396,176.613 68.167 C 176.666 67.938,176.803 67.637,176.917 67.500 C 177.542 66.746,177.530 59.009,176.903 58.489 C 176.773 58.381,176.667 58.119,176.667 57.906 C 176.667 57.694,176.592 57.473,176.500 57.417 C 176.408 57.360,176.333 57.098,176.333 56.833 C 176.333 56.569,176.263 56.310,176.177 56.257 C 175.970 56.129,175.500 55.177,175.500 54.886 C 175.500 54.760,175.388 54.613,175.251 54.561 C 175.114 54.508,175.038 54.406,175.082 54.335 C 175.127 54.263,175.051 54.112,174.915 53.998 C 174.778 53.885,174.667 53.689,174.667 53.563 C 174.667 53.437,174.592 53.333,174.500 53.333 C 174.408 53.333,174.333 53.221,174.333 53.083 C 174.333 52.946,174.221 52.833,174.083 52.833 C 173.946 52.833,173.833 52.715,173.833 52.569 C 173.833 52.424,173.571 52.051,173.250 51.739 C 172.929 51.427,172.667 51.144,172.667 51.108 C 172.667 50.955,170.548 48.870,170.208 48.689 C 170.002 48.578,169.833 48.391,169.833 48.272 C 169.833 48.154,169.646 47.956,169.417 47.833 C 169.188 47.711,169.000 47.511,169.000 47.389 C 169.000 47.266,168.900 47.167,168.778 47.167 C 168.546 47.167,165.833 44.570,165.833 44.349 C 165.833 44.279,165.652 44.126,165.431 44.008 C 165.209 43.889,164.990 43.646,164.943 43.467 C 164.896 43.288,164.703 43.101,164.512 43.052 C 164.322 43.002,164.167 42.844,164.167 42.701 C 164.167 42.217,163.768 41.333,163.550 41.333 C 163.431 41.333,163.333 41.152,163.333 40.931 C 163.333 40.709,163.240 40.497,163.125 40.458 C 162.667 40.306,162.848 35.221,163.323 34.888 C 163.547 34.732,163.856 34.477,164.011 34.322 C 164.618 33.715,167.667 33.670,167.667 34.268 C 167.667 34.395,167.747 34.500,167.845 34.500 C 168.403 34.500,168.563 35.052,168.739 37.573 C 168.878 39.556,168.978 40.169,169.196 40.387 C 169.553 40.743,176.618 40.815,176.967 40.467 C 177.272 40.162,177.229 35.547,176.917 35.000 C 176.786 34.771,176.676 34.344,176.673 34.052 C 176.669 33.759,176.592 33.473,176.500 33.417 C 176.408 33.360,176.333 33.156,176.333 32.964 C 176.333 32.512,175.204 30.256,174.712 29.725 C 174.504 29.500,174.333 29.243,174.333 29.155 C 174.333 29.066,174.146 28.907,173.917 28.803 C 173.688 28.699,173.500 28.521,173.500 28.409 C 173.500 28.173,172.935 27.773,172.333 27.583 C 172.104 27.511,171.821 27.316,171.704 27.151 C 171.560 26.945,171.175 26.813,170.496 26.736 C 169.864 26.665,169.500 26.547,169.500 26.413 C 169.500 26.034,163.061 25.766,162.208 26.110 M224.625 26.784 L 221.500 26.841 221.500 50.736 C 221.500 72.371,221.525 74.641,221.764 74.732 C 222.242 74.916,241.329 74.847,241.678 74.661 C 241.981 74.498,242.000 74.277,242.000 70.854 L 242.000 67.220 241.575 67.027 C 241.280 66.892,239.432 66.833,235.494 66.833 L 229.837 66.833 229.794 47.008 C 229.765 34.071,229.692 27.126,229.583 27.019 C 229.339 26.777,228.130 26.720,224.625 26.784 M245.083 26.813 L 244.583 26.920 244.539 50.585 L 244.494 74.250 244.849 74.542 C 245.270 74.888,264.209 75.001,264.844 74.661 C 265.317 74.408,265.345 67.422,264.875 67.065 C 264.646 66.891,263.350 66.843,258.833 66.839 L 253.083 66.833 253.132 47.625 C 253.186 26.360,253.210 27.106,252.467 26.847 C 251.914 26.654,245.954 26.627,245.083 26.813 M293.109 26.971 C 292.707 27.416,292.681 66.333,293.083 66.333 C 293.263 66.333,293.333 66.517,293.333 66.990 C 293.333 67.351,293.408 67.693,293.500 67.750 C 293.592 67.807,293.667 68.064,293.667 68.323 C 293.667 68.581,293.779 68.886,293.917 69.000 C 294.054 69.114,294.167 69.386,294.167 69.604 C 294.167 69.822,294.234 70.000,294.315 70.000 C 294.397 70.000,294.511 70.188,294.568 70.417 C 294.626 70.646,294.747 70.833,294.837 70.833 C 294.926 70.833,295.000 70.946,295.000 71.083 C 295.000 71.221,295.075 71.333,295.167 71.333 C 295.258 71.333,295.333 71.447,295.333 71.587 C 295.333 71.726,295.514 71.923,295.736 72.024 C 295.957 72.125,296.175 72.348,296.220 72.519 C 296.265 72.691,296.438 72.884,296.604 72.948 C 296.771 73.012,297.105 73.266,297.346 73.513 C 297.588 73.760,297.953 74.016,298.159 74.081 C 298.365 74.146,298.667 74.334,298.831 74.498 C 299.014 74.681,299.519 74.841,300.136 74.913 C 300.761 74.986,301.177 75.119,301.233 75.265 C 301.362 75.602,307.532 75.611,307.868 75.274 C 307.993 75.150,308.458 74.994,308.902 74.928 C 309.952 74.770,310.167 74.680,310.167 74.399 C 310.167 74.271,310.322 74.167,310.511 74.167 C 310.964 74.167,311.504 73.881,311.917 73.422 C 312.100 73.219,312.419 72.963,312.625 72.854 C 312.831 72.744,313.000 72.557,313.000 72.438 C 313.000 72.318,313.188 72.135,313.417 72.030 C 313.646 71.926,313.833 71.726,313.833 71.587 C 313.833 71.447,313.908 71.333,314.000 71.333 C 314.092 71.333,314.167 71.221,314.167 71.083 C 314.167 70.946,314.227 70.833,314.301 70.833 C 314.443 70.833,315.000 69.677,315.000 69.381 C 315.000 69.286,315.112 69.114,315.250 69.000 C 315.392 68.882,315.500 68.518,315.500 68.156 C 315.500 67.806,315.575 67.473,315.667 67.417 C 315.758 67.360,315.833 66.835,315.833 66.250 C 315.833 65.665,315.908 65.140,316.000 65.083 C 316.281 64.910,316.214 27.327,315.932 26.955 C 315.728 26.686,315.378 26.664,311.896 26.705 L 308.083 26.750 308.041 45.875 C 308.013 58.432,307.942 65.000,307.833 65.000 C 307.741 65.000,307.667 65.216,307.667 65.480 C 307.667 65.743,307.554 66.053,307.417 66.167 C 307.279 66.281,307.167 66.445,307.167 66.532 C 307.167 66.740,306.736 67.167,306.526 67.167 C 306.435 67.167,306.334 67.248,306.301 67.348 C 306.263 67.462,305.678 67.530,304.750 67.530 C 303.822 67.530,303.237 67.462,303.199 67.348 C 303.166 67.248,303.036 67.167,302.911 67.167 C 302.629 67.167,301.833 66.147,301.833 65.786 C 301.833 65.639,301.758 65.473,301.667 65.417 C 301.557 65.349,301.500 58.779,301.500 46.250 L 301.500 27.186 301.130 26.926 C 300.527 26.504,293.496 26.544,293.109 26.971 M320.339 50.365 C 320.343 71.257,320.374 74.123,320.596 74.417 C 321.050 75.018,335.833 75.003,335.833 74.402 C 335.833 74.247,336.022 74.167,336.386 74.167 C 337.096 74.167,338.667 73.703,338.667 73.494 C 338.667 73.405,338.779 73.333,338.917 73.333 C 339.054 73.333,339.167 73.268,339.167 73.188 C 339.167 73.107,339.399 72.995,339.682 72.939 C 340.004 72.874,340.230 72.710,340.285 72.501 C 340.333 72.317,340.477 72.167,340.604 72.167 C 340.861 72.167,341.786 71.337,342.069 70.852 C 342.272 70.507,342.726 69.809,343.191 69.132 C 343.361 68.883,343.500 68.494,343.500 68.267 C 343.500 68.039,343.575 67.807,343.667 67.750 C 343.758 67.693,343.836 67.370,343.839 67.032 C 343.842 66.693,343.954 66.271,344.089 66.093 C 344.292 65.824,344.331 64.935,344.317 60.843 C 344.303 56.725,344.174 54.482,343.994 55.250 C 343.973 55.342,343.896 55.079,343.823 54.667 C 343.584 53.309,343.453 52.923,343.058 52.401 C 342.843 52.117,342.667 51.803,342.667 51.702 C 342.667 51.601,342.530 51.421,342.364 51.301 C 342.197 51.181,341.919 50.840,341.745 50.542 C 341.571 50.244,341.343 50.000,341.240 50.000 C 341.136 50.000,340.909 49.841,340.734 49.648 C 340.560 49.454,340.247 49.230,340.040 49.151 C 339.663 49.007,339.944 48.333,340.382 48.333 C 340.570 48.333,341.000 47.897,341.000 47.707 C 341.000 47.624,341.186 47.457,341.414 47.335 C 341.679 47.193,341.866 46.912,341.933 46.557 C 341.990 46.250,342.131 46.000,342.246 46.000 C 342.475 46.000,343.000 44.771,343.000 44.235 C 343.000 44.049,343.110 43.751,343.245 43.574 C 343.559 43.158,343.622 34.522,343.313 34.213 C 343.211 34.111,343.064 33.740,342.988 33.388 C 342.669 31.928,342.601 31.741,342.320 31.541 C 342.159 31.427,341.978 31.111,341.918 30.840 C 341.859 30.569,341.566 30.133,341.268 29.872 C 340.970 29.610,340.677 29.268,340.617 29.111 C 340.557 28.955,340.288 28.783,340.019 28.729 C 339.733 28.672,339.495 28.500,339.447 28.315 C 339.402 28.142,339.226 27.998,339.057 27.995 C 338.888 27.992,338.604 27.879,338.426 27.745 C 338.249 27.610,337.967 27.500,337.801 27.500 C 337.636 27.500,337.500 27.441,337.500 27.370 C 337.500 26.846,336.399 26.766,328.375 26.706 L 320.333 26.646 320.339 50.365 M347.500 50.417 C 347.500 71.417,347.529 74.167,347.750 74.167 C 347.887 74.167,348.000 74.276,348.000 74.409 C 348.000 74.841,349.013 74.875,358.466 74.768 C 363.572 74.709,367.919 74.663,368.125 74.664 C 368.331 74.666,368.500 74.572,368.500 74.457 C 368.500 74.341,368.650 74.153,368.833 74.039 C 369.281 73.759,369.347 68.165,368.912 67.325 L 368.658 66.833 362.412 66.833 L 356.167 66.833 356.167 60.125 L 356.166 53.417 360.750 53.463 C 364.774 53.505,365.333 53.479,365.333 53.255 C 365.333 53.111,365.478 53.000,365.667 53.000 C 365.990 53.000,366.000 52.889,366.000 49.417 L 366.000 45.833 361.083 45.833 L 356.167 45.833 356.167 40.169 L 356.167 34.504 362.357 34.460 C 367.667 34.423,368.564 34.381,368.664 34.167 C 368.729 34.029,368.868 33.749,368.974 33.544 C 369.242 33.026,369.230 28.199,368.959 27.331 L 368.752 26.667 358.126 26.667 L 347.500 26.667 347.500 50.417 M180.520 27.059 C 180.270 27.360,180.333 74.162,180.583 74.177 C 180.675 74.182,180.804 74.332,180.870 74.510 C 181.007 74.882,188.011 75.018,188.678 74.661 C 188.989 74.494,189.000 74.230,189.000 66.744 C 189.000 61.692,189.058 59.000,189.167 59.000 C 189.258 59.000,189.333 58.858,189.333 58.684 C 189.333 58.511,189.446 58.326,189.583 58.273 C 189.721 58.220,189.833 58.029,189.833 57.848 C 189.833 57.668,189.908 57.473,190.000 57.417 C 190.092 57.360,190.167 57.176,190.167 57.008 C 190.167 56.840,190.279 56.659,190.417 56.606 C 190.554 56.554,190.667 56.321,190.667 56.089 C 190.667 55.857,190.732 55.667,190.813 55.667 C 190.893 55.667,191.014 55.423,191.082 55.125 C 191.228 54.482,191.452 54.941,191.483 55.948 C 191.493 56.241,191.575 56.527,191.667 56.583 C 191.758 56.640,191.833 56.935,191.833 57.239 C 191.833 57.544,191.938 57.879,192.066 57.985 C 192.194 58.092,192.340 58.419,192.391 58.714 C 192.631 60.096,192.722 60.434,192.917 60.667 C 193.032 60.804,193.168 61.142,193.220 61.417 C 193.488 62.851,193.528 62.986,194.060 64.214 C 194.210 64.561,194.333 65.100,194.333 65.412 C 194.333 65.725,194.408 66.027,194.500 66.083 C 194.592 66.140,194.667 66.435,194.667 66.739 C 194.667 67.044,194.779 67.386,194.917 67.500 C 195.054 67.614,195.167 67.881,195.167 68.094 C 195.167 68.306,195.242 68.527,195.333 68.583 C 195.425 68.640,195.500 68.898,195.500 69.157 C 195.500 69.417,195.612 69.843,195.749 70.106 C 195.886 70.369,195.998 70.710,195.999 70.865 C 196.000 71.020,196.075 71.193,196.167 71.250 C 196.258 71.307,196.333 71.607,196.333 71.917 C 196.333 72.227,196.408 72.527,196.500 72.583 C 196.592 72.640,196.667 72.860,196.667 73.073 C 196.667 73.285,196.779 73.553,196.917 73.667 C 197.054 73.781,197.167 74.044,197.167 74.253 C 197.167 74.810,197.343 74.833,201.591 74.833 C 205.274 74.833,205.498 74.816,205.661 74.511 C 205.917 74.033,205.870 72.894,205.583 72.607 C 205.446 72.470,205.333 72.127,205.333 71.845 C 205.333 71.564,205.258 71.333,205.167 71.333 C 205.075 71.333,205.000 71.043,205.000 70.687 C 205.000 70.316,204.894 69.952,204.750 69.833 C 204.612 69.719,204.500 69.452,204.500 69.239 C 204.500 69.027,204.425 68.807,204.333 68.750 C 204.242 68.693,204.167 68.403,204.167 68.105 C 204.167 67.807,204.057 67.418,203.922 67.240 C 203.787 67.062,203.675 66.752,203.672 66.552 C 203.669 66.351,203.592 66.140,203.500 66.083 C 203.408 66.027,203.333 65.838,203.333 65.665 C 203.333 65.078,202.973 63.663,202.770 63.456 C 202.660 63.343,202.481 62.771,202.374 62.186 C 202.267 61.602,202.064 60.996,201.923 60.840 C 201.782 60.684,201.667 60.357,201.667 60.112 C 201.667 59.867,201.602 59.667,201.523 59.667 C 201.444 59.667,201.335 59.286,201.280 58.821 C 201.171 57.901,200.834 56.833,200.653 56.833 C 200.590 56.833,200.487 56.346,200.423 55.750 C 200.343 55.003,200.216 54.602,200.013 54.459 C 199.810 54.314,199.686 53.918,199.609 53.167 C 199.545 52.538,199.371 51.908,199.195 51.667 C 199.028 51.438,198.805 50.762,198.698 50.167 C 198.331 48.116,198.209 47.656,197.956 47.370 C 197.817 47.212,197.648 46.673,197.580 46.171 C 197.513 45.669,197.354 45.098,197.225 44.903 C 197.025 44.597,197.026 44.519,197.233 44.347 C 197.366 44.237,197.524 43.852,197.585 43.490 C 197.646 43.129,197.756 42.833,197.828 42.833 C 197.955 42.833,198.833 41.174,198.833 40.935 C 198.833 40.871,198.980 40.662,199.160 40.469 C 199.340 40.276,199.535 39.798,199.593 39.407 C 199.666 38.922,199.795 38.672,199.999 38.619 C 200.197 38.567,200.336 38.310,200.413 37.854 C 200.477 37.476,200.598 37.167,200.681 37.167 C 200.765 37.167,200.833 37.086,200.833 36.988 C 200.833 36.890,200.946 36.697,201.083 36.560 C 201.221 36.422,201.333 36.165,201.333 35.988 C 201.333 35.811,201.408 35.667,201.500 35.667 C 201.592 35.667,201.667 35.525,201.667 35.351 C 201.667 35.178,201.772 34.995,201.900 34.946 C 202.028 34.897,202.225 34.579,202.337 34.239 C 202.449 33.899,202.719 33.359,202.937 33.037 C 203.155 32.716,203.333 32.311,203.333 32.136 C 203.333 31.962,203.486 31.655,203.673 31.455 C 203.860 31.254,204.059 30.901,204.116 30.670 C 204.173 30.439,204.383 29.988,204.581 29.667 C 204.780 29.346,205.049 28.840,205.179 28.542 C 205.309 28.244,205.476 28.000,205.551 28.000 C 205.626 28.000,205.664 27.756,205.636 27.458 L 205.583 26.917 201.417 26.917 L 197.250 26.917 197.195 27.302 C 197.165 27.514,197.034 27.728,196.904 27.778 C 196.773 27.828,196.667 28.048,196.667 28.268 C 196.667 28.487,196.592 28.667,196.500 28.667 C 196.408 28.667,196.333 28.820,196.333 29.007 C 196.333 29.195,196.162 29.533,195.953 29.758 C 195.743 29.984,195.471 30.512,195.347 30.932 C 195.223 31.351,195.019 31.734,194.894 31.782 C 194.769 31.830,194.667 32.002,194.667 32.165 C 194.667 32.328,194.555 32.677,194.418 32.939 C 194.281 33.202,194.168 33.536,194.168 33.683 C 194.167 33.829,194.017 34.084,193.833 34.250 C 193.650 34.416,193.500 34.702,193.500 34.885 C 193.500 35.068,193.313 35.464,193.083 35.765 C 192.854 36.065,192.667 36.417,192.667 36.547 C 192.667 36.786,192.189 37.848,192.013 38.000 C 191.772 38.208,191.497 38.876,191.398 39.493 C 191.338 39.871,191.198 40.167,191.078 40.167 C 190.829 40.167,190.500 41.022,190.500 41.672 C 190.500 41.988,190.397 42.155,190.167 42.215 C 189.971 42.266,189.833 42.442,189.833 42.641 C 189.833 42.828,189.767 43.021,189.686 43.072 C 189.604 43.122,189.488 43.426,189.428 43.748 C 189.094 45.530,189.000 43.764,189.000 35.684 C 189.000 27.952,188.972 27.025,188.736 26.934 C 188.153 26.711,180.715 26.824,180.520 27.059 M208.432 27.092 C 207.967 27.557,208.040 74.534,208.505 74.247 C 208.581 74.200,208.691 74.313,208.749 74.498 C 208.881 74.912,216.004 75.029,216.553 74.625 C 216.817 74.430,216.833 72.848,216.793 50.667 L 216.750 26.917 212.723 26.872 C 209.226 26.833,208.661 26.862,208.432 27.092 M333.516 34.782 C 334.728 35.384,335.000 36.309,335.000 39.833 C 335.000 43.889,334.423 45.167,332.591 45.167 C 331.541 45.167,331.167 45.281,331.167 45.601 C 331.167 45.777,330.892 45.833,330.042 45.833 L 328.917 45.833 328.917 40.167 L 328.917 34.500 330.933 34.500 C 332.491 34.500,333.078 34.564,333.516 34.782 M334.046 53.912 C 334.437 54.075,334.818 54.449,335.191 55.037 L 335.750 55.917 335.750 60.464 C 335.750 63.449,335.690 65.053,335.575 65.131 C 335.479 65.196,335.232 65.492,335.026 65.787 C 334.717 66.230,334.505 66.343,333.822 66.434 C 333.366 66.494,332.952 66.609,332.903 66.689 C 332.854 66.768,331.956 66.833,330.907 66.833 L 329.000 66.833 329.000 60.250 L 329.000 53.667 331.230 53.667 C 332.814 53.667,333.629 53.738,334.046 53.912 " stroke="none" fill="#fcfcfc" fill-rule="evenodd"></path><path id="path1" d="M55.000 15.996 C 54.862 16.087,54.506 16.163,54.208 16.164 C 53.910 16.166,53.667 16.242,53.667 16.333 C 53.667 16.425,53.446 16.500,53.177 16.500 C 52.907 16.500,52.644 16.568,52.592 16.652 C 52.541 16.736,52.199 16.855,51.832 16.917 C 51.466 16.979,51.167 17.098,51.167 17.181 C 51.167 17.265,51.054 17.333,50.917 17.333 C 50.779 17.333,50.667 17.399,50.667 17.479 C 50.667 17.559,50.460 17.667,50.208 17.718 C 49.956 17.769,49.584 17.966,49.382 18.155 C 49.180 18.345,48.952 18.500,48.876 18.500 C 48.293 18.500,44.861 22.056,44.095 23.454 C 43.905 23.800,43.700 24.122,43.638 24.168 C 43.577 24.215,43.475 24.459,43.412 24.710 C 43.349 24.961,43.230 25.167,43.149 25.167 C 43.067 25.167,43.000 25.354,43.000 25.583 C 43.000 25.813,42.928 26.000,42.839 26.000 C 42.751 26.000,42.628 26.375,42.568 26.833 C 42.507 27.292,42.392 27.667,42.312 27.667 C 42.232 27.667,42.167 27.925,42.167 28.240 C 42.167 28.556,42.092 28.860,42.000 28.917 C 41.898 28.979,41.833 30.252,41.833 32.177 C 41.833 34.170,41.895 35.333,42.000 35.333 C 42.092 35.333,42.167 35.596,42.167 35.917 C 42.167 36.237,42.232 36.500,42.312 36.500 C 42.392 36.500,42.507 36.875,42.568 37.333 C 42.628 37.792,42.751 38.167,42.839 38.167 C 42.928 38.167,43.000 38.354,43.000 38.583 C 43.000 38.813,43.067 39.000,43.149 39.000 C 43.230 39.000,43.345 39.189,43.402 39.420 C 43.517 39.875,44.544 41.549,45.029 42.069 C 45.194 42.247,45.372 42.525,45.423 42.688 C 45.475 42.850,45.659 43.028,45.833 43.083 C 46.007 43.139,46.195 43.326,46.250 43.500 C 46.305 43.674,46.493 43.861,46.667 43.917 C 46.841 43.972,47.028 44.159,47.083 44.333 C 47.139 44.507,47.330 44.696,47.509 44.753 C 47.687 44.809,47.833 44.926,47.833 45.011 C 47.833 45.097,47.946 45.167,48.083 45.167 C 48.221 45.167,48.333 45.225,48.333 45.297 C 48.333 45.369,48.577 45.570,48.875 45.743 C 49.173 45.916,49.454 46.105,49.500 46.163 C 49.621 46.315,50.768 46.833,50.984 46.833 C 51.084 46.833,51.167 46.908,51.167 47.000 C 51.167 47.092,51.312 47.167,51.490 47.167 C 51.668 47.167,51.859 47.239,51.914 47.329 C 51.969 47.418,52.386 47.540,52.840 47.600 C 53.295 47.660,53.667 47.775,53.667 47.855 C 53.667 47.935,53.929 48.000,54.250 48.000 C 54.571 48.000,54.833 48.075,54.833 48.167 C 54.833 48.272,55.972 48.333,57.917 48.333 C 59.861 48.333,61.000 48.272,61.000 48.167 C 61.000 48.075,61.300 48.000,61.667 48.000 C 62.033 48.000,62.333 47.925,62.333 47.833 C 62.333 47.742,62.519 47.667,62.747 47.667 C 63.176 47.667,64.521 47.193,64.667 46.991 C 64.712 46.927,64.994 46.822,65.292 46.758 C 65.590 46.693,65.833 46.571,65.833 46.487 C 65.833 46.402,65.946 46.333,66.083 46.333 C 66.221 46.333,66.333 46.275,66.333 46.205 C 66.333 46.134,66.596 45.934,66.917 45.762 C 67.237 45.589,67.500 45.384,67.500 45.307 C 67.500 45.230,67.578 45.167,67.674 45.167 C 67.967 45.167,70.667 42.600,70.667 42.321 C 70.667 42.245,70.845 42.003,71.063 41.785 C 71.282 41.567,71.512 41.226,71.575 41.028 C 71.638 40.829,71.759 40.667,71.845 40.667 C 71.930 40.667,72.000 40.554,72.000 40.417 C 72.000 40.279,72.075 40.167,72.167 40.167 C 72.258 40.167,72.336 40.035,72.339 39.875 C 72.342 39.715,72.454 39.438,72.589 39.260 C 72.723 39.082,72.833 38.763,72.833 38.551 C 72.833 38.340,72.908 38.167,73.000 38.167 C 73.092 38.167,73.167 38.021,73.167 37.843 C 73.167 37.665,73.238 37.475,73.326 37.421 C 73.413 37.367,73.535 36.875,73.597 36.328 C 73.659 35.781,73.775 35.333,73.855 35.333 C 74.062 35.333,74.041 29.045,73.833 28.917 C 73.742 28.860,73.667 28.616,73.667 28.373 C 73.667 27.804,73.132 26.000,72.963 26.000 C 72.892 26.000,72.833 25.843,72.833 25.651 C 72.833 25.347,72.410 24.407,72.165 24.167 C 72.118 24.121,71.931 23.794,71.748 23.440 C 71.566 23.087,71.249 22.637,71.045 22.440 C 70.840 22.244,70.671 22.003,70.670 21.905 C 70.668 21.807,70.498 21.568,70.292 21.375 C 70.085 21.181,69.829 20.924,69.721 20.803 C 68.929 19.911,67.188 18.500,66.880 18.500 C 66.763 18.500,66.667 18.434,66.667 18.353 C 66.667 18.272,66.235 17.992,65.708 17.730 C 65.181 17.468,64.712 17.203,64.666 17.142 C 64.620 17.081,64.301 16.978,63.958 16.913 C 63.614 16.849,63.333 16.730,63.333 16.648 C 63.333 16.567,63.108 16.500,62.833 16.500 C 62.558 16.500,62.333 16.433,62.333 16.350 C 62.333 15.995,55.499 15.665,55.000 15.996 M34.333 53.816 C 34.333 53.899,33.808 54.019,33.167 54.083 C 32.525 54.148,32.000 54.268,32.000 54.350 C 32.000 54.433,31.896 54.500,31.769 54.500 C 31.642 54.500,31.323 54.612,31.061 54.749 C 30.798 54.886,30.452 54.998,30.292 54.999 C 30.131 55.000,30.000 55.075,30.000 55.167 C 30.000 55.258,29.887 55.333,29.750 55.333 C 29.613 55.333,29.500 55.400,29.500 55.482 C 29.500 55.564,29.313 55.678,29.083 55.735 C 28.854 55.793,28.667 55.913,28.667 56.003 C 28.667 56.093,28.561 56.167,28.431 56.167 C 28.081 56.167,24.667 59.249,24.667 59.565 C 24.667 59.634,24.573 59.795,24.458 59.923 C 23.964 60.474,23.833 60.663,23.833 60.826 C 23.833 60.922,23.760 61.000,23.670 61.000 C 23.580 61.000,23.459 61.188,23.402 61.417 C 23.344 61.646,23.230 61.833,23.149 61.833 C 23.067 61.833,23.000 61.946,23.000 62.083 C 23.000 62.221,22.944 62.333,22.875 62.333 C 22.806 62.333,22.605 62.787,22.427 63.343 C 22.250 63.898,22.044 64.390,21.969 64.436 C 21.894 64.482,21.833 64.734,21.833 64.996 C 21.833 65.258,21.740 65.503,21.625 65.542 C 21.466 65.595,21.417 66.604,21.417 69.833 C 21.417 73.063,21.466 74.072,21.625 74.125 C 21.740 74.163,21.833 74.367,21.833 74.578 C 21.833 74.789,21.945 75.177,22.082 75.439 C 22.219 75.702,22.332 76.043,22.332 76.198 C 22.333 76.354,22.408 76.527,22.500 76.583 C 22.592 76.640,22.667 76.832,22.667 77.010 C 22.667 77.188,22.742 77.333,22.833 77.333 C 22.925 77.333,23.000 77.446,23.000 77.583 C 23.000 77.721,23.067 77.833,23.149 77.833 C 23.230 77.833,23.344 78.021,23.402 78.250 C 23.459 78.479,23.580 78.667,23.670 78.667 C 23.760 78.667,23.833 78.761,23.833 78.877 C 23.833 78.992,24.021 79.289,24.250 79.536 C 24.479 79.783,24.667 80.032,24.667 80.088 C 24.667 80.144,24.760 80.295,24.875 80.423 C 24.990 80.551,25.170 80.751,25.276 80.869 C 25.516 81.136,27.142 82.620,27.746 83.125 C 27.993 83.331,28.301 83.500,28.431 83.500 C 28.561 83.500,28.667 83.574,28.667 83.663 C 28.667 83.753,28.854 83.874,29.083 83.932 C 29.313 83.989,29.500 84.103,29.500 84.185 C 29.500 84.266,29.613 84.333,29.750 84.333 C 29.887 84.333,30.000 84.400,30.000 84.481 C 30.000 84.563,30.262 84.679,30.583 84.739 C 30.904 84.799,31.167 84.920,31.167 85.008 C 31.167 85.095,31.354 85.167,31.583 85.167 C 31.813 85.167,32.000 85.234,32.000 85.316 C 32.000 85.399,32.525 85.519,33.167 85.583 C 33.808 85.648,34.333 85.768,34.333 85.850 C 34.333 85.933,35.704 86.000,37.417 86.000 C 39.112 86.000,40.500 85.936,40.500 85.857 C 40.500 85.778,40.969 85.665,41.542 85.605 C 42.115 85.546,42.608 85.422,42.639 85.332 C 42.669 85.241,42.876 85.167,43.097 85.167 C 43.319 85.167,43.500 85.100,43.500 85.019 C 43.500 84.937,43.762 84.821,44.083 84.761 C 44.404 84.701,44.667 84.580,44.667 84.492 C 44.667 84.405,44.779 84.333,44.917 84.333 C 45.054 84.333,45.167 84.258,45.167 84.167 C 45.167 84.075,45.307 84.000,45.480 84.000 C 45.652 84.000,45.886 83.887,46.000 83.750 C 46.114 83.612,46.311 83.500,46.437 83.500 C 46.563 83.500,46.667 83.441,46.667 83.369 C 46.667 83.297,46.873 83.115,47.125 82.964 C 47.710 82.614,48.833 81.549,48.833 81.345 C 48.833 81.259,48.965 81.147,49.125 81.095 C 49.285 81.043,49.594 80.739,49.811 80.420 C 50.028 80.101,50.346 79.677,50.519 79.478 C 50.692 79.279,50.833 79.049,50.833 78.968 C 50.833 78.886,50.986 78.655,51.173 78.455 C 51.360 78.254,51.556 77.920,51.608 77.712 C 51.660 77.504,51.770 77.333,51.851 77.333 C 51.933 77.333,52.000 77.183,52.000 77.000 C 52.000 76.817,52.075 76.667,52.167 76.667 C 52.258 76.667,52.334 76.498,52.334 76.292 C 52.335 76.085,52.447 75.702,52.584 75.439 C 52.721 75.177,52.833 74.783,52.833 74.564 C 52.833 74.346,52.908 74.167,53.000 74.167 C 53.092 74.167,53.167 73.919,53.167 73.617 C 53.167 73.314,53.245 72.988,53.341 72.892 C 53.694 72.539,53.352 65.500,52.982 65.500 C 52.900 65.500,52.833 65.321,52.833 65.102 C 52.833 64.884,52.721 64.490,52.584 64.227 C 52.447 63.965,52.335 63.581,52.334 63.375 C 52.334 63.169,52.258 63.000,52.167 63.000 C 52.075 63.000,52.000 62.850,52.000 62.667 C 52.000 62.483,51.933 62.333,51.851 62.333 C 51.770 62.333,51.660 62.163,51.608 61.955 C 51.556 61.747,51.360 61.413,51.173 61.212 C 50.986 61.011,50.833 60.781,50.833 60.699 C 50.833 60.618,50.692 60.388,50.519 60.189 C 50.346 59.989,50.028 59.565,49.811 59.246 C 49.594 58.927,49.289 58.625,49.134 58.575 C 48.978 58.524,48.804 58.337,48.747 58.158 C 48.691 57.979,48.586 57.833,48.514 57.833 C 48.443 57.833,48.124 57.590,47.805 57.292 C 46.996 56.535,46.521 56.167,46.352 56.167 C 46.272 56.167,46.114 56.054,46.000 55.917 C 45.886 55.779,45.652 55.667,45.480 55.667 C 45.307 55.667,45.167 55.592,45.167 55.500 C 45.167 55.408,45.054 55.333,44.917 55.333 C 44.779 55.333,44.667 55.262,44.667 55.174 C 44.667 55.087,44.404 54.966,44.083 54.906 C 43.762 54.845,43.500 54.730,43.500 54.648 C 43.500 54.567,43.319 54.500,43.097 54.500 C 42.876 54.500,42.669 54.426,42.639 54.335 C 42.608 54.244,42.115 54.121,41.542 54.061 C 40.969 54.001,40.500 53.888,40.500 53.810 C 40.500 53.731,39.112 53.667,37.417 53.667 C 35.704 53.667,34.333 53.733,34.333 53.816 M75.667 53.814 C 75.667 53.895,75.179 54.013,74.583 54.077 C 73.987 54.141,73.500 54.262,73.500 54.347 C 73.500 54.431,73.313 54.500,73.083 54.500 C 72.854 54.500,72.667 54.567,72.667 54.648 C 72.667 54.730,72.404 54.845,72.083 54.906 C 71.762 54.966,71.500 55.087,71.500 55.174 C 71.500 55.262,71.350 55.333,71.167 55.333 C 70.983 55.333,70.833 55.400,70.833 55.482 C 70.833 55.564,70.646 55.678,70.417 55.735 C 70.188 55.793,70.000 55.913,70.000 56.003 C 70.000 56.093,69.887 56.167,69.750 56.167 C 69.612 56.167,69.500 56.225,69.500 56.297 C 69.500 56.369,69.281 56.557,69.014 56.715 C 68.494 57.023,66.167 59.271,66.166 59.466 C 66.166 59.531,65.979 59.801,65.750 60.068 C 65.521 60.334,65.333 60.646,65.333 60.762 C 65.333 60.878,65.270 60.997,65.192 61.028 C 64.971 61.114,64.167 62.463,64.167 62.747 C 64.167 62.886,64.092 63.000,64.000 63.000 C 63.908 63.000,63.833 63.188,63.833 63.417 C 63.833 63.646,63.761 63.833,63.672 63.833 C 63.584 63.833,63.462 64.208,63.401 64.667 C 63.340 65.125,63.225 65.500,63.145 65.500 C 63.065 65.500,63.000 65.758,63.000 66.073 C 63.000 66.389,62.925 66.693,62.833 66.750 C 62.732 66.813,62.667 68.057,62.667 69.927 C 62.667 71.864,62.728 73.000,62.833 73.000 C 62.925 73.000,63.000 73.262,63.000 73.583 C 63.000 73.904,63.065 74.167,63.145 74.167 C 63.225 74.167,63.330 74.520,63.379 74.953 C 63.427 75.385,63.550 75.767,63.650 75.800 C 63.751 75.834,63.833 76.042,63.833 76.264 C 63.833 76.485,63.908 76.667,64.000 76.667 C 64.092 76.667,64.167 76.781,64.167 76.920 C 64.167 77.203,64.971 78.552,65.192 78.639 C 65.270 78.669,65.333 78.834,65.333 79.006 C 65.333 79.177,65.434 79.377,65.557 79.450 C 65.680 79.523,65.924 79.807,66.099 80.080 C 66.531 80.756,68.365 82.568,68.991 82.938 C 69.271 83.103,69.500 83.297,69.500 83.369 C 69.500 83.441,69.612 83.500,69.750 83.500 C 69.887 83.500,70.000 83.574,70.000 83.663 C 70.000 83.753,70.188 83.874,70.417 83.932 C 70.646 83.989,70.833 84.103,70.833 84.185 C 70.833 84.266,70.983 84.333,71.167 84.333 C 71.350 84.333,71.500 84.405,71.500 84.492 C 71.500 84.580,71.762 84.701,72.083 84.761 C 72.404 84.821,72.667 84.937,72.667 85.019 C 72.667 85.100,72.854 85.167,73.083 85.167 C 73.313 85.167,73.500 85.236,73.500 85.320 C 73.500 85.404,73.987 85.526,74.583 85.589 C 75.179 85.653,75.667 85.772,75.667 85.853 C 75.667 85.934,77.054 86.000,78.750 86.000 C 80.446 86.000,81.833 85.935,81.833 85.855 C 81.833 85.775,82.358 85.658,83.000 85.595 C 83.642 85.532,84.167 85.409,84.167 85.323 C 84.167 85.237,84.271 85.167,84.398 85.167 C 84.525 85.167,84.843 85.055,85.106 84.918 C 85.369 84.781,85.715 84.668,85.875 84.668 C 86.035 84.667,86.167 84.592,86.167 84.500 C 86.167 84.408,86.279 84.333,86.417 84.333 C 86.554 84.333,86.667 84.266,86.667 84.185 C 86.667 84.103,86.854 83.989,87.083 83.932 C 87.313 83.874,87.500 83.753,87.500 83.663 C 87.500 83.574,87.580 83.500,87.678 83.500 C 88.067 83.500,91.500 80.430,91.500 80.081 C 91.500 80.029,91.688 79.783,91.917 79.536 C 92.146 79.289,92.333 78.992,92.333 78.877 C 92.333 78.761,92.403 78.667,92.489 78.667 C 92.574 78.667,92.697 78.498,92.761 78.292 C 92.826 78.085,92.928 77.879,92.989 77.833 C 93.198 77.677,93.667 76.534,93.667 76.183 C 93.667 75.991,93.723 75.833,93.793 75.833 C 94.015 75.833,94.319 74.944,94.434 73.958 C 94.496 73.431,94.611 73.000,94.690 73.000 C 94.769 73.000,94.833 71.575,94.833 69.833 C 94.833 68.092,94.769 66.667,94.690 66.667 C 94.611 66.667,94.501 66.286,94.446 65.821 C 94.333 64.861,93.998 63.833,93.800 63.833 C 93.727 63.833,93.667 63.676,93.667 63.484 C 93.667 63.132,93.198 61.989,92.989 61.833 C 92.928 61.788,92.826 61.581,92.761 61.375 C 92.697 61.169,92.574 61.000,92.489 61.000 C 92.403 61.000,92.333 60.920,92.333 60.821 C 92.333 60.723,92.240 60.538,92.125 60.411 C 91.668 59.901,91.500 59.676,91.500 59.574 C 91.500 59.368,88.661 56.687,88.332 56.583 C 88.150 56.525,88.000 56.408,88.000 56.322 C 88.000 56.237,87.888 56.167,87.750 56.167 C 87.612 56.167,87.500 56.093,87.500 56.003 C 87.500 55.913,87.313 55.793,87.083 55.735 C 86.854 55.678,86.667 55.582,86.667 55.523 C 86.667 55.421,86.429 55.306,85.000 54.714 C 84.679 54.581,84.284 54.402,84.123 54.317 C 83.961 54.231,83.380 54.114,82.831 54.057 C 82.282 53.999,81.833 53.888,81.833 53.810 C 81.833 53.731,80.446 53.667,78.750 53.667 C 77.054 53.667,75.667 53.733,75.667 53.814 " stroke="none" fill="#fc5c3c" fill-rule="evenodd"></path><path id="path2" d="" stroke="none" fill="#fc100cc" fill-rule="evenodd"></path><path id="path3" d="" stroke="none" fill="#fc100cc" fill-rule="evenodd"></path><path id="path4" d="" stroke="none" fill="#fc100cc" fill-rule="evenodd"></path></g></svg>